<svg width="190" height="43" viewBox="0 0 190 43" xmlns="http://www.w3.org/2000/svg">
    <g  fill-rule="evenodd">
        <rect  width="190" height="43" rx="8"/>
        <path d="M49.667 27.143v.714c0 1.184-.97 2.143-2.167 2.143H30.167C28.97 30 28 29.04 28 27.857V16.43c0-1.184.97-2.143 2.167-2.143h.722v2.143h-.451a.27.27 0 0 0-.271.267V27.59a.27.27 0 0 0 .27.268H47.23c.15 0 .271-.12.271-.268v-.446h2.167zm1.895-15H34.772a.27.27 0 0 0-.271.268v10.893a.27.27 0 0 0 .27.267h16.792c.15 0 .271-.12.271-.267V12.41a.27.27 0 0 0-.27-.268zM51.834 10C53.03 10 54 10.96 54 12.143V23.57c0 1.184-.97 2.143-2.167 2.143H34.5c-1.197 0-2.167-.96-2.167-2.143V12.143c0-1.184.97-2.143 2.167-2.143h17.333zm-11.916 5c0 .986-.809 1.786-1.806 1.786s-1.805-.8-1.805-1.786.808-1.786 1.805-1.786c.997 0 1.806.8 1.806 1.786zm-3.25 4.286 1.783-1.764a.546.546 0 0 1 .766 0L41 19.286l4.673-4.621a.546.546 0 0 1 .766 0l3.228 3.192v3.572h-13v-2.143z"  />
        <text font-family="SourceSansPro-Semibold, Source Sans Pro" font-size="18" font-weight="500"  transform="translate(28 10)">
                        <tspan x="46" y="18">Add Photos</tspan>
                    </text>
    </g>
</svg>
